<?xml version="1.0" encoding="UTF-8"?>
<svg xmlns="http://www.w3.org/2000/svg" xmlns:xlink="http://www.w3.org/1999/xlink" width="100px" height="62px" viewBox="0 0 99 62" version="1.1">
<defs>
<clipPath id="clip1">
  <path d="M 4.042969 21 L 94.878906 21 L 94.878906 58 L 4.042969 58 Z M 4.042969 21 "/>
</clipPath>
<clipPath id="clip2">
  <path d="M 4.042969 0 L 94.878906 0 L 94.878906 51 L 4.042969 51 Z M 4.042969 0 "/>
</clipPath>
<clipPath id="clip3">
  <path d="M 4.042969 21 L 94.878906 21 L 94.878906 58 L 4.042969 58 Z M 4.042969 21 "/>
</clipPath>
</defs>
<g id="surface1">
<g clip-path="url(#clip1)" clip-rule="nonzero">
<path style=" stroke:none;fill-rule:nonzero;fill:rgb(3.529412%,82.745098%,67.45098%);fill-opacity:1;" d="M 4.042969 21.914062 L 4.042969 39.804688 C 4.042969 51.425781 27.445312 57.691406 49.460938 57.691406 C 71.476562 57.691406 94.878906 51.425781 94.878906 39.804688 L 94.878906 21.914062 Z M 4.042969 21.914062 "/>
</g>
<path style=" stroke:none;fill-rule:nonzero;fill:rgb(3.529412%,82.745098%,67.45098%);fill-opacity:1;" d="M 93.878906 21.914062 C 93.878906 24.007812 92.804688 26.113281 90.628906 28.140625 C 88.453125 30.164062 85.253906 32.035156 81.210938 33.625 C 73.136719 36.808594 61.910156 38.796875 49.460938 38.796875 C 37.011719 38.796875 25.785156 36.808594 17.710938 33.625 C 13.667969 32.035156 10.46875 30.164062 8.292969 28.140625 C 6.117188 26.113281 5.042969 24.007812 5.042969 21.914062 C 5.042969 19.816406 6.117188 17.710938 8.292969 15.6875 C 10.46875 13.660156 13.667969 11.792969 17.710938 10.199219 C 25.785156 7.019531 37.011719 5.027344 49.460938 5.027344 C 61.910156 5.027344 73.136719 7.019531 81.210938 10.199219 C 85.253906 11.792969 88.453125 13.660156 90.628906 15.6875 C 92.804688 17.710938 93.878906 19.816406 93.878906 21.914062 Z M 93.878906 21.914062 "/>
<g clip-path="url(#clip2)" clip-rule="nonzero">
<path style="fill:none;stroke-width:3;stroke-linecap:butt;stroke-linejoin:miter;stroke:rgb(15.686275%,34.509804%,65.490196%);stroke-opacity:1;stroke-miterlimit:4;" d="M 134.501105 48.001667 C 134.501105 51.122546 132.892829 54.260892 129.635338 57.282788 C 126.377848 60.298861 121.588109 63.087855 115.535141 65.457627 C 103.446752 70.202992 86.638803 73.166663 68.000343 73.166663 C 49.361883 73.166663 32.553934 70.202992 20.465544 65.457627 C 14.412577 63.087855 9.622838 60.298861 6.365348 57.282788 C 3.107857 54.260892 1.499581 51.122546 1.499581 48.001667 C 1.499581 44.874966 3.107857 41.73662 6.365348 38.720547 C 9.622838 35.698652 14.412577 32.91548 20.465544 30.539886 C 32.553934 25.800342 49.361883 22.83085 68.000343 22.83085 C 86.638803 22.83085 103.446752 25.800342 115.535141 30.539886 C 121.588109 32.91548 126.377848 35.698652 129.635338 38.720547 C 132.892829 41.73662 134.501105 44.874966 134.501105 48.001667 Z M 134.501105 48.001667 " transform="matrix(0.667932,0,0,0.670885,4.041351,-10.289526)"/>
</g>
<g clip-path="url(#clip3)" clip-rule="nonzero">
<path style=" stroke:none;fill-rule:nonzero;fill:rgb(15.686275%,34.509804%,65.490196%);fill-opacity:1;" d="M 9.71875 30.929688 L 9.71875 48.820312 C 6.160156 46.316406 4.042969 43.273438 4.042969 39.804688 L 4.042969 21.914062 C 4.042969 25.382812 6.160156 28.425781 9.71875 30.929688 Z M 94.878906 21.914062 L 94.878906 39.804688 C 94.878906 43.273438 92.761719 46.316406 89.203125 48.820312 L 89.203125 30.929688 C 92.761719 28.425781 94.878906 25.382812 94.878906 21.914062 Z M 24.859375 37.046875 L 24.859375 54.9375 C 22.851562 54.472656 20.960938 53.9375 19.179688 53.328125 L 19.179688 35.4375 C 20.960938 36.046875 22.851562 36.582031 24.859375 37.046875 Z M 43.785156 39.660156 L 43.785156 57.550781 C 41.890625 57.480469 40 57.335938 38.105469 57.15625 L 38.105469 39.265625 C 40 39.445312 41.890625 39.589844 43.785156 39.660156 Z M 60.816406 39.265625 L 60.816406 57.15625 C 58.921875 57.335938 57.03125 57.480469 55.136719 57.550781 L 55.136719 39.660156 C 57.03125 39.589844 58.921875 39.445312 60.816406 39.265625 Z M 79.738281 35.4375 L 79.738281 53.328125 C 77.960938 53.9375 76.070312 54.472656 74.0625 54.9375 L 74.0625 37.046875 C 76.070312 36.582031 77.960938 36.046875 79.738281 35.4375 Z M 79.738281 35.4375 "/>
</g>
</g>
</svg>
