<svg xmlns="http://www.w3.org/2000/svg" width="360" height="128" viewBox="0 0 360 128" fill="none">
<g clip-path="url(#clip0_3_9)">
<path d="M0 48V74.6667C0 91.9893 35.037 101.333 68 101.333C100.963 101.333 136 91.9893 136 74.6667V48H0Z" fill="#09d3ac"/>
<path d="M134.5 48C134.5 51.1252 132.891 54.2624 129.636 57.2799C126.38 60.2991 121.586 63.0871 115.536 65.4597C103.445 70.2013 86.6388 73.1666 68 73.1666C49.3612 73.1666 32.5554 70.2013 20.4644 65.4597C14.4143 63.0871 9.62004 60.2991 6.36362 57.2799C3.10908 54.2624 1.5 51.1252 1.5 48C1.5 44.8748 3.10908 41.7376 6.36362 38.7201C9.62004 35.7008 14.4143 32.9128 20.4644 30.5403C32.5554 25.7987 49.3612 22.8333 68 22.8333C86.6388 22.8333 103.445 25.7987 115.536 30.5403C121.586 32.9128 126.38 35.7008 129.636 38.7201C132.891 41.7376 134.5 44.8748 134.5 48Z" fill="#09d3ac" stroke="#2858a7" stroke-width="3"/>
<path d="M8.5 61.44V88.1067C3.17333 84.3733 0 79.84 0 74.6667V48C0 53.1733 3.17333 57.7067 8.5 61.44ZM136 48V74.6667C136 79.84 132.827 84.3733 127.5 88.1067V61.44C132.827 57.7067 136 53.1733 136 48ZM31.1667 70.56V97.2267C28.1633 96.5333 25.33 95.7333 22.6667 94.8267V68.16C25.33 69.0667 28.1633 69.8667 31.1667 70.56ZM59.5 74.4533V101.12C56.6667 101.013 53.8333 100.8 51 100.533V73.8667C53.8333 74.1333 56.6667 74.3467 59.5 74.4533ZM85 73.8667V100.533C82.1667 100.8 79.3333 101.013 76.5 101.12V74.4533C79.3333 74.3467 82.1667 74.1333 85 73.8667ZM113.333 68.16V94.8267C110.67 95.7333 107.837 96.5333 104.833 97.2267V70.56C107.837 69.8667 110.67 69.0667 113.333 68.16Z" fill="#2858a7"/>
</g>
<path d="M151.129 82V47.824H160.729V82H151.129ZM158.905 82V74.032H177.241V82H158.905ZM158.905 68.464V60.688H175.465V68.464H158.905ZM158.905 55.792V47.824H176.953V55.792H158.905ZM191.433 82.48C189.097 82.48 187.049 81.952 185.289 80.896C183.561 79.84 182.201 78.4 181.209 76.576C180.249 74.72 179.769 72.592 179.769 70.192C179.769 67.792 180.249 65.664 181.209 63.808C182.201 61.952 183.561 60.512 185.289 59.488C187.049 58.432 189.097 57.904 191.433 57.904C192.841 57.904 194.169 58.144 195.417 58.624C196.665 59.072 197.721 59.712 198.585 60.544C199.481 61.376 200.041 62.336 200.265 63.424V76.48C200.041 77.568 199.481 78.576 198.585 79.504C197.721 80.4 196.665 81.12 195.417 81.664C194.169 82.208 192.841 82.48 191.433 82.48ZM193.161 74.224C193.961 74.224 194.649 74.064 195.225 73.744C195.801 73.392 196.249 72.912 196.569 72.304C196.921 71.696 197.097 70.992 197.097 70.192C197.097 69.392 196.937 68.704 196.617 68.128C196.297 67.52 195.833 67.04 195.225 66.688C194.649 66.336 193.977 66.16 193.209 66.16C192.441 66.16 191.753 66.336 191.145 66.688C190.569 67.04 190.105 67.52 189.753 68.128C189.401 68.736 189.225 69.424 189.225 70.192C189.225 70.96 189.385 71.648 189.705 72.256C190.057 72.864 190.537 73.344 191.145 73.696C191.753 74.048 192.425 74.224 193.161 74.224ZM205.977 82H196.809V75.664L198.105 69.904L196.569 64.192V46.864H205.977V82ZM221.738 82.576C219.434 82.576 217.386 82.128 215.594 81.232C213.834 80.336 212.442 79.088 211.418 77.488C210.394 75.888 209.882 74.064 209.882 72.016V58.384H219.29V72.112C219.29 72.592 219.386 73.024 219.578 73.408C219.802 73.792 220.09 74.096 220.442 74.32C220.826 74.512 221.258 74.608 221.738 74.608C222.41 74.608 222.97 74.384 223.418 73.936C223.898 73.456 224.138 72.848 224.138 72.112V58.384H233.546V72.016C233.546 74.096 233.034 75.936 232.01 77.536C231.018 79.104 229.626 80.336 227.834 81.232C226.074 82.128 224.042 82.576 221.738 82.576ZM245.764 68.368V61.744H251.572C252.884 61.744 253.876 61.424 254.548 60.784C255.252 60.144 255.604 59.296 255.604 58.24C255.604 57.184 255.252 56.336 254.548 55.696C253.876 55.056 252.884 54.736 251.572 54.736H245.764V47.824H253.108C255.476 47.824 257.556 48.256 259.348 49.12C261.14 49.984 262.548 51.184 263.572 52.72C264.596 54.256 265.108 56.048 265.108 58.096C265.108 60.144 264.58 61.936 263.524 63.472C262.5 65.008 261.06 66.208 259.204 67.072C257.348 67.936 255.156 68.368 252.628 68.368H245.764ZM237.988 82V47.824H247.588V82H237.988ZM256.42 82L247.108 67.408L255.748 65.536L267.316 82H256.42ZM278.471 82.48C276.263 82.48 274.311 81.952 272.615 80.896C270.919 79.84 269.591 78.4 268.631 76.576C267.671 74.72 267.191 72.592 267.191 70.192C267.191 67.792 267.671 65.664 268.631 63.808C269.591 61.952 270.919 60.512 272.615 59.488C274.311 58.432 276.263 57.904 278.471 57.904C279.847 57.904 281.111 58.144 282.263 58.624C283.447 59.072 284.423 59.712 285.191 60.544C285.991 61.376 286.503 62.336 286.727 63.424V76.96C286.503 78.048 285.991 79.008 285.191 79.84C284.423 80.672 283.447 81.328 282.263 81.808C281.111 82.256 279.847 82.48 278.471 82.48ZM280.583 74.224C281.767 74.224 282.711 73.856 283.415 73.12C284.151 72.352 284.519 71.376 284.519 70.192C284.519 69.392 284.359 68.704 284.039 68.128C283.719 67.52 283.255 67.04 282.647 66.688C282.071 66.336 281.399 66.16 280.631 66.16C279.863 66.16 279.175 66.336 278.567 66.688C277.991 67.04 277.527 67.52 277.175 68.128C276.823 68.736 276.647 69.424 276.647 70.192C276.647 70.96 276.807 71.648 277.127 72.256C277.479 72.864 277.959 73.344 278.567 73.696C279.175 74.048 279.847 74.224 280.583 74.224ZM284.231 82V75.664L285.527 69.904L284.231 64.192V58.384H293.399V82H284.231ZM297.88 82V58.384H307.288V82H297.88ZM302.584 56.176C301.208 56.176 300.056 55.712 299.128 54.784C298.232 53.824 297.784 52.656 297.784 51.28C297.784 49.904 298.232 48.752 299.128 47.824C300.056 46.864 301.208 46.384 302.584 46.384C303.992 46.384 305.144 46.864 306.04 47.824C306.936 48.752 307.384 49.904 307.384 51.28C307.384 52.656 306.936 53.824 306.04 54.784C305.144 55.712 303.992 56.176 302.584 56.176ZM321.164 82.72C319.692 82.72 318.22 82.528 316.748 82.144C315.276 81.76 313.9 81.232 312.62 80.56C311.372 79.888 310.316 79.12 309.452 78.256L314.396 73.168C315.164 73.936 316.076 74.544 317.132 74.992C318.22 75.44 319.356 75.664 320.54 75.664C321.084 75.664 321.5 75.6 321.788 75.472C322.108 75.312 322.268 75.104 322.268 74.848C322.268 74.4 321.996 74.064 321.452 73.84C320.94 73.616 320.268 73.408 319.436 73.216C318.636 73.024 317.772 72.784 316.844 72.496C315.948 72.176 315.084 71.76 314.252 71.248C313.42 70.704 312.748 69.968 312.236 69.04C311.724 68.08 311.468 66.864 311.468 65.392C311.468 63.888 311.884 62.56 312.716 61.408C313.58 60.224 314.78 59.296 316.316 58.624C317.884 57.92 319.692 57.568 321.74 57.568C323.82 57.568 325.836 57.92 327.788 58.624C329.74 59.328 331.292 60.384 332.444 61.792L327.452 66.88C326.652 65.984 325.772 65.392 324.812 65.104C323.852 64.784 323.052 64.624 322.412 64.624C321.804 64.624 321.372 64.72 321.116 64.912C320.892 65.072 320.78 65.28 320.78 65.536C320.78 65.888 321.036 66.176 321.548 66.4C322.06 66.624 322.716 66.832 323.516 67.024C324.348 67.216 325.212 67.472 326.108 67.792C327.004 68.112 327.852 68.56 328.652 69.136C329.484 69.712 330.156 70.48 330.668 71.44C331.18 72.368 331.436 73.584 331.436 75.088C331.436 77.424 330.508 79.28 328.652 80.656C326.796 82.032 324.3 82.72 321.164 82.72ZM347.341 82.576C344.589 82.576 342.173 82.064 340.093 81.04C338.013 79.984 336.381 78.528 335.197 76.672C334.045 74.784 333.469 72.624 333.469 70.192C333.469 67.792 334.029 65.664 335.149 63.808C336.301 61.952 337.869 60.496 339.853 59.44C341.837 58.352 344.077 57.808 346.573 57.808C349.037 57.808 351.213 58.32 353.101 59.344C354.989 60.336 356.461 61.728 357.517 63.52C358.605 65.312 359.149 67.36 359.149 69.664C359.149 70.144 359.117 70.656 359.053 71.2C359.021 71.712 358.925 72.32 358.765 73.024L337.453 73.168V67.408L355.261 67.264L350.893 69.808C350.893 68.528 350.733 67.488 350.413 66.688C350.125 65.856 349.677 65.232 349.069 64.816C348.461 64.4 347.693 64.192 346.765 64.192C345.805 64.192 344.973 64.432 344.269 64.912C343.565 65.392 343.021 66.08 342.637 66.976C342.285 67.872 342.109 68.96 342.109 70.24C342.109 71.552 342.301 72.656 342.685 73.552C343.101 74.416 343.693 75.072 344.461 75.52C345.229 75.968 346.189 76.192 347.341 76.192C348.461 76.192 349.437 76.016 350.269 75.664C351.133 75.28 351.917 74.688 352.621 73.888L357.325 78.544C356.141 79.888 354.717 80.896 353.053 81.568C351.389 82.24 349.485 82.576 347.341 82.576Z" fill="#09d3ac"/>
<defs fill="#000000">
<clipPath id="clip0_3_9" fill="#000000">
<rect width="136" height="128" fill="#faf9f9"/>
</clipPath>
</defs>
</svg>